<svg id="Ebene_1" data-name="Ebene 1" xmlns="http://www.w3.org/2000/svg" viewBox="0 0 650.96 638.2"><defs><style>.cls-1{fill:#17f1ff;}.cls-2{fill:red;}.cls-3{fill:#fff;stroke:#fff;stroke-miterlimit:10;}</style></defs><path class="cls-1" d="M133,183.88v50.88H103.44v-150H165.6q16.8,0,26.76,4.92T206.76,106q4.44,11.4,4.44,30.6,0,25.2-9.84,36.24t-32.16,11Zm0-22.56h32.4q8.4,0,11.64-2.16t3.24-7.92V119.32q0-5.76-3.24-7.92t-11.64-2.16H133Zm52.8,6.24,32.4,67.2H186l-27.36-58.32Z" transform="translate(-73.12 -80.66)"/><path class="cls-1" d="M469,232.12a89.25,89.25,0,0,1-18.72,4.8,159.23,159.23,0,0,1-22.8,1.44q-17.28,0-28.56-3.72A33.52,33.52,0,0,1,381.36,222q-6.24-8.88-8.88-24t-2.64-38.16q0-23,2.76-38.4t9.48-24.12a36.38,36.38,0,0,1,18.36-12.48q11.64-3.72,29.88-3.72,5.28,0,12.12.6a118.61,118.61,0,0,1,13.32,1.92,94.69,94.69,0,0,1,10.8,2.76l-3.84,24a73.2,73.2,0,0,0-12.36-2.52q-6.84-.84-13.08-1.44t-10.32-.6q-13.68,0-19.56,3.36t-5.88,14.64v86.64a117.62,117.62,0,0,0,12.6,2.28,107.33,107.33,0,0,0,13.56.84,120.28,120.28,0,0,0,20-1.68,147.81,147.81,0,0,0,18.6-4.32Z" transform="translate(-73.12 -80.66)"/><path class="cls-1" d="M661,238.36a187.34,187.34,0,0,1-26-1.8,170.68,170.68,0,0,1-23.64-4.92l3.84-23A190.06,190.06,0,0,0,637.2,212q12.24,1.2,23.28,1.2,18.72,0,25.68-1.68V172.36l-41.76-5.52v-15.6l41.76-7V108q-6.72-1.68-21.36-1.68-11,0-23.28,1.2a190.06,190.06,0,0,0-22.08,3.36l-3.6-23.28a166.64,166.64,0,0,1,24.24-4.8,210.79,210.79,0,0,1,26.64-1.68q25.68,0,38.28,10t12.6,30.12a48.07,48.07,0,0,1-5,22.44,33.6,33.6,0,0,1-14.88,14.76v1.2q10.32,5,15.12,13.8t4.8,22.2q0,15.6-5.52,25t-18,13.56Q681.6,238.36,661,238.36Z" transform="translate(-73.12 -80.66)"/><path class="cls-1" d="M96,394.76v-24a91.37,91.37,0,0,1,1.56-18,35.1,35.1,0,0,1,6-13.8,49.54,49.54,0,0,1,13-11.76A176.42,176.42,0,0,1,139,315.08q13.92-6.48,34.56-15.12V268a52.55,52.55,0,0,0-9-1.32q-5.16-.36-13.32-.36-11,0-23.64,1.2t-24.12,3.36l-4.08-23.28a181.85,181.85,0,0,1,25-4.8,218.44,218.44,0,0,1,27.12-1.68q27.6,0,40.68,9.48t13.08,29.88a74,74,0,0,1-1.56,16.08,30.56,30.56,0,0,1-6.24,12.72q-4.68,5.76-13.68,11.28a234.59,234.59,0,0,1-23.52,12.24q-14.52,6.72-36.12,15.6v21.84h78.48v24.48Z" transform="translate(-73.12 -80.66)"/><path class="cls-1" d="M269.44,319.88q0-24.48,2.64-40T281.44,256q6.72-8.4,19.08-11.64t32-3.24q19.68,0,31.92,3.24t19,11.64q6.72,8.4,9.36,23.76t2.64,40.08a307.2,307.2,0,0,1-1.56,33.72q-1.56,13.8-5.4,22.56a31.68,31.68,0,0,1-10.92,13.68q-7.08,4.92-18.12,6.72a170.42,170.42,0,0,1-26.88,1.8,160,160,0,0,1-26.88-1.92q-11-1.92-18.12-6.72a31.55,31.55,0,0,1-11-13.68q-4-8.88-5.52-22.56A303.83,303.83,0,0,1,269.44,319.88Zm31.68-53.52v94.08q0,7.68,4,10.2T322,373.16h41.76V279.08q0-7.68-4.44-10.2t-17.64-2.52Z" transform="translate(-73.12 -80.66)"/><path class="cls-1" d="M458.48,394.76v-24a91.37,91.37,0,0,1,1.56-18,35.1,35.1,0,0,1,6-13.8,49.54,49.54,0,0,1,13-11.76,176.42,176.42,0,0,1,22.44-12.12Q515.36,308.6,536,300V268a52.55,52.55,0,0,0-9-1.32q-5.16-.36-13.32-.36-11,0-23.64,1.2t-24.12,3.36l-4.08-23.28a181.85,181.85,0,0,1,25-4.8,218.44,218.44,0,0,1,27.12-1.68q27.6,0,40.68,9.48t13.08,29.88a74,74,0,0,1-1.56,16.08,30.56,30.56,0,0,1-6.24,12.72q-4.68,5.76-13.68,11.28a234.59,234.59,0,0,1-23.52,12.24q-14.52,6.72-36.12,15.6v21.84H565v24.48Z" transform="translate(-73.12 -80.66)"/><path class="cls-1" d="M626.64,394.76V370.28h36.72V270.44l-39.12,4.08V248.36l68.64-7.2V370.28h29.28v24.48Z" transform="translate(-73.12 -80.66)"/><path class="cls-1" d="M154.8,429.24V554.76H125.28V429.24H87.12V404.76H193v24.48Z" transform="translate(-73.12 -80.66)"/><path class="cls-1" d="M305.28,490.92v39.36h63.84v24.48H275.76v-150h92.88l-3.36,24.48h-60V468.6H360v22.32Z" transform="translate(-73.12 -80.66)"/><path class="cls-1" d="M459.84,554.76v-150h29.52V530.28h53v24.48Z" transform="translate(-73.12 -80.66)"/><path class="cls-1" d="M653.76,490.92v39.36H717.6v24.48H624.24v-150h92.88l-3.36,24.48h-60V468.6h54.72v22.32Z" transform="translate(-73.12 -80.66)"/><path class="cls-1" d="M98.16,687.64a157.5,157.5,0,0,0,22.92,4.44,200.16,200.16,0,0,0,24.6,1.56q6,0,11.52-.24t13.92-1V655l-22.56-1.92a132.17,132.17,0,0,1-25.8-3.72q-10.2-2.76-16.08-7.68A27,27,0,0,1,98.28,629q-2.52-7.8-2.52-19.32,0-18,4.68-28.56a28.87,28.87,0,0,1,15.48-15.24q10.8-4.68,28.8-4.68a251.64,251.64,0,0,1,50.4,5l-3.84,23.52q-11-1.92-21-2.88t-21.72-1q-7.2,0-11.4.24t-9.24,1v37.68l24.48,1.68q19,1.44,30,6.12t15.84,14.28q4.8,9.6,4.8,25.44,0,16.8-5.64,27t-18.24,14.64q-12.6,4.44-33.48,4.44a216.82,216.82,0,0,1-26.4-1.56,190.17,190.17,0,0,1-25.44-4.92Z" transform="translate(-73.12 -80.66)"/><path class="cls-1" d="M286.8,714.76H257.28v-150H286.8ZM347,651.64H283V629.08H347Zm-3.84-86.88h29.52v150H343.2Z" transform="translate(-73.12 -80.66)"/><path class="cls-1" d="M431.76,639.88q0-24,2.76-39.36t9.72-24q7-8.64,19.2-12t31.68-3.36q19.2,0,31.56,3.36t19.32,12q7,8.64,9.6,24t2.64,39.36q0,24-2.64,39.24T546,703q-7,8.64-19.32,12t-31.56,3.36q-19.44,0-31.68-3.36t-19.2-12q-7-8.64-9.72-23.88T431.76,639.88Zm31.68,53.28h43.2q11.28,0,15.72-3.6t4.44-12.72V586.36H483.36q-11.28,0-15.6,3.6t-4.32,12.72Z" transform="translate(-73.12 -80.66)"/><path class="cls-1" d="M647,668.44v46.32H617.52v-150h61q16.8,0,26.76,4.92T719.64,586q4.44,11.4,4.44,30.6,0,27.36-9.84,39.6t-32.16,12.24Zm0-22.56h31.2q8.4,0,11.64-2.16t3.24-7.92V599.32q0-5.76-3.24-7.92t-11.64-2.16H647Z" transform="translate(-73.12 -80.66)"/><path class="cls-2" d="M119,183.88v50.88H89.44v-150H151.6q16.8,0,26.76,4.92T192.76,106q4.44,11.4,4.44,30.6,0,25.2-9.84,36.24t-32.16,11Zm0-22.56h32.4q8.4,0,11.64-2.16t3.24-7.92V119.32q0-5.76-3.24-7.92t-11.64-2.16H119Zm52.8,6.24,32.4,67.2H172l-27.36-58.32Z" transform="translate(-73.12 -80.66)"/><path class="cls-2" d="M455,232.12a89.25,89.25,0,0,1-18.72,4.8,159.23,159.23,0,0,1-22.8,1.44q-17.28,0-28.56-3.72A33.52,33.52,0,0,1,367.36,222q-6.24-8.88-8.88-24t-2.64-38.16q0-23,2.76-38.4t9.48-24.12a36.38,36.38,0,0,1,18.36-12.48q11.64-3.72,29.88-3.72,5.28,0,12.12.6a118.61,118.61,0,0,1,13.32,1.92,94.69,94.69,0,0,1,10.8,2.76l-3.84,24a73.2,73.2,0,0,0-12.36-2.52q-6.84-.84-13.08-1.44t-10.32-.6q-13.68,0-19.56,3.36t-5.88,14.64v86.64a117.62,117.62,0,0,0,12.6,2.28,107.33,107.33,0,0,0,13.56.84,120.28,120.28,0,0,0,20-1.68,147.81,147.81,0,0,0,18.6-4.32Z" transform="translate(-73.12 -80.66)"/><path class="cls-2" d="M647,238.36a187.34,187.34,0,0,1-26-1.8,170.68,170.68,0,0,1-23.64-4.92l3.84-23A190.06,190.06,0,0,0,623.2,212q12.24,1.2,23.28,1.2,18.72,0,25.68-1.68V172.36l-41.76-5.52v-15.6l41.76-7V108q-6.72-1.68-21.36-1.68-11,0-23.28,1.2a190.06,190.06,0,0,0-22.08,3.36l-3.6-23.28a166.64,166.64,0,0,1,24.24-4.8,210.79,210.79,0,0,1,26.64-1.68q25.68,0,38.28,10t12.6,30.12a48.07,48.07,0,0,1-5,22.44,33.6,33.6,0,0,1-14.88,14.76v1.2q10.32,5,15.12,13.8t4.8,22.2q0,15.6-5.52,25t-18,13.56Q667.6,238.36,647,238.36Z" transform="translate(-73.12 -80.66)"/><path class="cls-2" d="M82,394.76v-24a91.37,91.37,0,0,1,1.56-18,35.1,35.1,0,0,1,6-13.8,49.54,49.54,0,0,1,13-11.76A176.42,176.42,0,0,1,125,315.08q13.92-6.48,34.56-15.12V268a52.55,52.55,0,0,0-9-1.32q-5.16-.36-13.32-.36-11,0-23.64,1.2t-24.12,3.36l-4.08-23.28a181.85,181.85,0,0,1,25-4.8,218.44,218.44,0,0,1,27.12-1.68q27.6,0,40.68,9.48t13.08,29.88a74,74,0,0,1-1.56,16.08,30.56,30.56,0,0,1-6.24,12.72q-4.68,5.76-13.68,11.28a234.59,234.59,0,0,1-23.52,12.24q-14.52,6.72-36.12,15.6v21.84h78.48v24.48Z" transform="translate(-73.12 -80.66)"/><path class="cls-2" d="M255.44,319.88q0-24.48,2.64-40T267.44,256q6.72-8.4,19.08-11.64t32-3.24q19.68,0,31.92,3.24t19,11.64q6.72,8.4,9.36,23.76t2.64,40.08a307.2,307.2,0,0,1-1.56,33.72q-1.56,13.8-5.4,22.56a31.68,31.68,0,0,1-10.92,13.68q-7.08,4.92-18.12,6.72a170.42,170.42,0,0,1-26.88,1.8,160,160,0,0,1-26.88-1.92q-11-1.92-18.12-6.72a31.55,31.55,0,0,1-11-13.68q-4-8.88-5.52-22.56A303.83,303.83,0,0,1,255.44,319.88Zm31.68-53.52v94.08q0,7.68,4,10.2T308,373.16h41.76V279.08q0-7.68-4.44-10.2t-17.64-2.52Z" transform="translate(-73.12 -80.66)"/><path class="cls-2" d="M444.48,394.76v-24a91.37,91.37,0,0,1,1.56-18,35.1,35.1,0,0,1,6-13.8,49.54,49.54,0,0,1,13-11.76,176.42,176.42,0,0,1,22.44-12.12Q501.36,308.6,522,300V268a52.55,52.55,0,0,0-9-1.32q-5.16-.36-13.32-.36-11,0-23.64,1.2t-24.12,3.36l-4.08-23.28a181.85,181.85,0,0,1,25-4.8,218.44,218.44,0,0,1,27.12-1.68q27.6,0,40.68,9.48t13.08,29.88a74,74,0,0,1-1.56,16.08,30.56,30.56,0,0,1-6.24,12.72q-4.68,5.76-13.68,11.28a234.59,234.59,0,0,1-23.52,12.24q-14.52,6.72-36.12,15.6v21.84H551v24.48Z" transform="translate(-73.12 -80.66)"/><path class="cls-2" d="M612.64,394.76V370.28h36.72V270.44l-39.12,4.08V248.36l68.64-7.2V370.28h29.28v24.48Z" transform="translate(-73.12 -80.66)"/><path class="cls-2" d="M140.8,429.24V554.76H111.28V429.24H73.12V404.76H179v24.48Z" transform="translate(-73.12 -80.66)"/><path class="cls-2" d="M291.28,490.92v39.36h63.84v24.48H261.76v-150h92.88l-3.36,24.48h-60V468.6H346v22.32Z" transform="translate(-73.12 -80.66)"/><path class="cls-2" d="M445.84,554.76v-150h29.52V530.28h53v24.48Z" transform="translate(-73.12 -80.66)"/><path class="cls-2" d="M639.76,490.92v39.36H703.6v24.48H610.24v-150h92.88l-3.36,24.48h-60V468.6h54.72v22.32Z" transform="translate(-73.12 -80.66)"/><path class="cls-2" d="M84.16,687.64a157.5,157.5,0,0,0,22.92,4.44,200.16,200.16,0,0,0,24.6,1.56q6,0,11.52-.24t13.92-1V655l-22.56-1.92a132.17,132.17,0,0,1-25.8-3.72q-10.2-2.76-16.08-7.68A27,27,0,0,1,84.28,629q-2.52-7.8-2.52-19.32,0-18,4.68-28.56a28.87,28.87,0,0,1,15.48-15.24q10.8-4.68,28.8-4.68a251.64,251.64,0,0,1,50.4,5l-3.84,23.52q-11-1.92-21-2.88t-21.72-1q-7.2,0-11.4.24t-9.24,1v37.68l24.48,1.68q19,1.44,30,6.12t15.84,14.28q4.8,9.6,4.8,25.44,0,16.8-5.64,27t-18.24,14.64q-12.6,4.44-33.48,4.44a216.82,216.82,0,0,1-26.4-1.56,190.17,190.17,0,0,1-25.44-4.92Z" transform="translate(-73.12 -80.66)"/><path class="cls-2" d="M272.8,714.76H243.28v-150H272.8ZM333,651.64H269V629.08H333Zm-3.84-86.88h29.52v150H329.2Z" transform="translate(-73.12 -80.66)"/><path class="cls-2" d="M417.76,639.88q0-24,2.76-39.36t9.72-24q7-8.64,19.2-12t31.68-3.36q19.2,0,31.56,3.36t19.32,12q7,8.64,9.6,24t2.64,39.36q0,24-2.64,39.24T532,703q-7,8.64-19.32,12t-31.56,3.36q-19.44,0-31.68-3.36t-19.2-12q-7-8.64-9.72-23.88T417.76,639.88Zm31.68,53.28h43.2q11.28,0,15.72-3.6t4.44-12.72V586.36H469.36q-11.28,0-15.6,3.6t-4.32,12.72Z" transform="translate(-73.12 -80.66)"/><path class="cls-2" d="M633,668.44v46.32H603.52v-150h61q16.8,0,26.76,4.92T705.64,586q4.44,11.4,4.44,30.6,0,27.36-9.84,39.6t-32.16,12.24Zm0-22.56h31.2q8.4,0,11.64-2.16t3.24-7.92V599.32q0-5.76-3.24-7.92t-11.64-2.16H633Z" transform="translate(-73.12 -80.66)"/><path class="cls-3" d="M127,183.88v50.88H97.44v-150H159.6q16.8,0,26.76,4.92T200.76,106q4.44,11.4,4.44,30.6,0,25.2-9.84,36.24t-32.16,11Zm0-22.56h32.4q8.4,0,11.64-2.16t3.24-7.92V119.32q0-5.76-3.24-7.92t-11.64-2.16H127Zm52.8,6.24,32.4,67.2H180l-27.36-58.32Z" transform="translate(-73.12 -80.66)"/><path class="cls-3" d="M463,232.12a89.25,89.25,0,0,1-18.72,4.8,159.23,159.23,0,0,1-22.8,1.44q-17.28,0-28.56-3.72A33.52,33.52,0,0,1,375.36,222q-6.24-8.88-8.88-24t-2.64-38.16q0-23,2.76-38.4t9.48-24.12a36.38,36.38,0,0,1,18.36-12.48q11.64-3.72,29.88-3.72,5.28,0,12.12.6a118.61,118.61,0,0,1,13.32,1.92,94.69,94.69,0,0,1,10.8,2.76l-3.84,24a73.2,73.2,0,0,0-12.36-2.52q-6.84-.84-13.08-1.44t-10.32-.6q-13.68,0-19.56,3.36t-5.88,14.64v86.64a117.62,117.62,0,0,0,12.6,2.28,107.33,107.33,0,0,0,13.56.84,120.28,120.28,0,0,0,20-1.68,147.81,147.81,0,0,0,18.6-4.32Z" transform="translate(-73.12 -80.66)"/><path class="cls-3" d="M655,238.36a187.34,187.34,0,0,1-26-1.8,170.68,170.68,0,0,1-23.64-4.92l3.84-23A190.06,190.06,0,0,0,631.2,212q12.24,1.2,23.28,1.2,18.72,0,25.68-1.68V172.36l-41.76-5.52v-15.6l41.76-7V108q-6.72-1.68-21.36-1.68-11,0-23.28,1.2a190.06,190.06,0,0,0-22.08,3.36l-3.6-23.28a166.64,166.64,0,0,1,24.24-4.8,210.79,210.79,0,0,1,26.64-1.68q25.68,0,38.28,10t12.6,30.12a48.07,48.07,0,0,1-5,22.44,33.6,33.6,0,0,1-14.88,14.76v1.2q10.32,5,15.12,13.8t4.8,22.2q0,15.6-5.52,25t-18,13.56Q675.6,238.36,655,238.36Z" transform="translate(-73.12 -80.66)"/><path class="cls-3" d="M90,394.76v-24a91.37,91.37,0,0,1,1.56-18,35.1,35.1,0,0,1,6-13.8,49.54,49.54,0,0,1,13-11.76A176.42,176.42,0,0,1,133,315.08q13.92-6.48,34.56-15.12V268a52.55,52.55,0,0,0-9-1.32q-5.16-.36-13.32-.36-11,0-23.64,1.2t-24.12,3.36l-4.08-23.28a181.85,181.85,0,0,1,25-4.8,218.44,218.44,0,0,1,27.12-1.68q27.6,0,40.68,9.48t13.08,29.88a74,74,0,0,1-1.56,16.08,30.56,30.56,0,0,1-6.24,12.72q-4.68,5.76-13.68,11.28a234.59,234.59,0,0,1-23.52,12.24q-14.52,6.72-36.12,15.6v21.84h78.48v24.48Z" transform="translate(-73.12 -80.66)"/><path class="cls-3" d="M263.44,319.88q0-24.48,2.64-40T275.44,256q6.72-8.4,19.08-11.64t32-3.24q19.68,0,31.92,3.24t19,11.64q6.72,8.4,9.36,23.76t2.64,40.08a307.2,307.2,0,0,1-1.56,33.72q-1.56,13.8-5.4,22.56a31.68,31.68,0,0,1-10.92,13.68q-7.08,4.92-18.12,6.72a170.42,170.42,0,0,1-26.88,1.8,160,160,0,0,1-26.88-1.92q-11-1.92-18.12-6.72a31.55,31.55,0,0,1-11-13.68q-4-8.88-5.52-22.56A303.83,303.83,0,0,1,263.44,319.88Zm31.68-53.52v94.08q0,7.68,4,10.2T316,373.16h41.76V279.08q0-7.68-4.44-10.2t-17.64-2.52Z" transform="translate(-73.12 -80.66)"/><path class="cls-3" d="M452.48,394.76v-24a91.37,91.37,0,0,1,1.56-18,35.1,35.1,0,0,1,6-13.8,49.54,49.54,0,0,1,13-11.76,176.42,176.42,0,0,1,22.44-12.12Q509.36,308.6,530,300V268a52.55,52.55,0,0,0-9-1.32q-5.16-.36-13.32-.36-11,0-23.64,1.2t-24.12,3.36l-4.08-23.28a181.85,181.85,0,0,1,25-4.8,218.44,218.44,0,0,1,27.12-1.68q27.6,0,40.68,9.48t13.08,29.88a74,74,0,0,1-1.56,16.08,30.56,30.56,0,0,1-6.24,12.72q-4.68,5.76-13.68,11.28a234.59,234.59,0,0,1-23.52,12.24q-14.52,6.72-36.12,15.6v21.84H559v24.48Z" transform="translate(-73.12 -80.66)"/><path class="cls-3" d="M620.64,394.76V370.28h36.72V270.44l-39.12,4.08V248.36l68.64-7.2V370.28h29.28v24.48Z" transform="translate(-73.12 -80.66)"/><path class="cls-3" d="M148.8,429.24V554.76H119.28V429.24H81.12V404.76H187v24.48Z" transform="translate(-73.12 -80.66)"/><path class="cls-3" d="M299.28,490.92v39.36h63.84v24.48H269.76v-150h92.88l-3.36,24.48h-60V468.6H354v22.32Z" transform="translate(-73.12 -80.66)"/><path class="cls-3" d="M453.84,554.76v-150h29.52V530.28h53v24.48Z" transform="translate(-73.12 -80.66)"/><path class="cls-3" d="M647.76,490.92v39.36H711.6v24.48H618.24v-150h92.88l-3.36,24.48h-60V468.6h54.72v22.32Z" transform="translate(-73.12 -80.66)"/><path class="cls-3" d="M92.16,687.64a157.5,157.5,0,0,0,22.92,4.44,200.16,200.16,0,0,0,24.6,1.56q6,0,11.52-.24t13.92-1V655l-22.56-1.92a132.17,132.17,0,0,1-25.8-3.72q-10.2-2.76-16.08-7.68A27,27,0,0,1,92.28,629q-2.52-7.8-2.52-19.32,0-18,4.68-28.56a28.87,28.87,0,0,1,15.48-15.24q10.8-4.68,28.8-4.68a251.64,251.64,0,0,1,50.4,5l-3.84,23.52q-11-1.92-21-2.88t-21.72-1q-7.2,0-11.4.24t-9.24,1v37.68l24.48,1.68q19,1.44,30,6.12t15.84,14.28q4.8,9.6,4.8,25.44,0,16.8-5.64,27t-18.24,14.64q-12.6,4.44-33.48,4.44a216.82,216.82,0,0,1-26.4-1.56,190.17,190.17,0,0,1-25.44-4.92Z" transform="translate(-73.12 -80.66)"/><path class="cls-3" d="M280.8,714.76H251.28v-150H280.8ZM341,651.64H277V629.08H341Zm-3.84-86.88h29.52v150H337.2Z" transform="translate(-73.12 -80.66)"/><path class="cls-3" d="M425.76,639.88q0-24,2.76-39.36t9.72-24q7-8.64,19.2-12t31.68-3.36q19.2,0,31.56,3.36t19.32,12q7,8.64,9.6,24t2.64,39.36q0,24-2.64,39.24T540,703q-7,8.64-19.32,12t-31.56,3.36q-19.44,0-31.68-3.36t-19.2-12q-7-8.64-9.72-23.88T425.76,639.88Zm31.68,53.28h43.2q11.28,0,15.72-3.6t4.44-12.72V586.36H477.36q-11.28,0-15.6,3.6t-4.32,12.72Z" transform="translate(-73.12 -80.66)"/><path class="cls-3" d="M641,668.44v46.32H611.52v-150h61q16.8,0,26.76,4.92T713.64,586q4.44,11.4,4.44,30.6,0,27.36-9.84,39.6t-32.16,12.24Zm0-22.56h31.2q8.4,0,11.64-2.16t3.24-7.92V599.32q0-5.76-3.24-7.92t-11.64-2.16H641Z" transform="translate(-73.12 -80.66)"/></svg>